<?xml version="1.0" standalone="no"?>
<!DOCTYPE svg PUBLIC "-//W3C//DTD SVG 20010904//EN"
 "http://www.w3.org/TR/2001/REC-SVG-20010904/DTD/svg10.dtd">
<svg version="1.0" xmlns="http://www.w3.org/2000/svg"
 width="180.000000pt" height="180.000000pt" viewBox="0 0 180.000000 180.000000"
 preserveAspectRatio="xMidYMid meet">
<metadata>
Created by potrace 1.11, written by Peter Selinger 2001-2013
</metadata>
<g transform="translate(0.000000,180.000000) scale(0.100000,-0.100000)"
fill="#000000" stroke="none">
<path d="M1236 1176 c-6 -23 -9 -23 -103 -22 -113 1 -146 -10 -211 -73 -62
-60 -81 -103 -87 -194 -5 -86 36 -173 110 -233 34 -28 35 -30 21 -56 -12 -23
-12 -29 -1 -38 11 -9 17 -5 30 20 15 28 19 30 53 24 120 -23 209 7 286 97 98
115 79 298 -41 396 -35 29 -41 38 -33 53 14 27 12 50 -4 50 -8 0 -16 -11 -20
-24z m-43 -65 c5 -5 -1 -30 -16 -62 -14 -30 -46 -99 -72 -154 -25 -54 -60
-130 -77 -167 l-32 -68 -25 17 c-94 61 -131 200 -81 306 28 59 90 113 150 132
47 14 137 12 153 -4z m103 -66 c114 -118 80 -313 -67 -391 -37 -19 -164 -29
-188 -15 -11 7 8 56 89 230 57 122 108 221 113 221 6 0 30 -20 53 -45z"/>
<path d="M102 881 l3 -276 69 -1 c85 -1 139 24 180 83 24 34 29 52 29 100 0
70 -18 109 -74 156 -40 34 -40 36 -25 59 26 36 20 85 -13 119 -16 16 -40 30
-53 30 -13 1 -44 2 -71 3 l-47 2 2 -275z m131 228 c29 -16 37 -28 37 -61 0
-39 -41 -67 -93 -65 l-42 2 -1 68 -2 67 40 0 c22 0 49 -5 61 -11z m47 -187
c50 -37 72 -82 68 -138 -8 -90 -66 -144 -160 -148 -42 -2 -49 0 -53 18 -3 19
-1 268 3 289 3 15 115 -2 142 -21z"/>
<path d="M469 1135 c-1 -27 -1 -484 0 -512 1 -13 7 -23 16 -23 12 0 15 17 15
95 0 92 1 95 23 96 62 3 80 0 88 -12 50 -84 118 -175 133 -178 17 -3 17 1 -7
41 -14 24 -41 68 -60 97 l-36 53 46 32 c86 58 110 154 60 239 -38 64 -90 89
-193 91 -78 2 -84 1 -85 -19z m190 -33 c48 -24 73 -62 78 -119 4 -39 0 -55
-19 -82 -39 -58 -66 -72 -146 -74 l-72 -3 0 148 0 148 63 0 c39 0 74 -6 96
-18z"/>
<path d="M1492 878 l3 -273 123 -2 c101 -2 122 0 122 12 0 18 7 17 -110 20
-52 1 -97 3 -100 4 -3 0 -5 115 -5 253 0 234 -1 253 -18 256 -16 3 -17 -13
-15 -270z"/>
</g>
</svg>
